<svg width="36" height="36" viewBox="0 0 36 36" fill="none" xmlns="http://www.w3.org/2000/svg">
<g clip-path="url(#clip0_0_342)">
<path d="M0 17.28C0 9.1341 0 5.06119 2.5306 2.5306C5.06119 0 9.1341 0 17.28 0H18.72C26.8659 0 30.9388 0 33.4694 2.5306C36 5.06119 36 9.1341 36 17.28V18.72C36 26.8659 36 30.9388 33.4694 33.4694C30.9388 36 26.8659 36 18.72 36H17.28C9.1341 36 5.06119 36 2.5306 33.4694C0 30.9388 0 26.8659 0 18.72V17.28Z" fill="#29A9EB"/>
<path fill-rule="evenodd" clip-rule="evenodd" d="M25.5855 9.09235C24.1877 9.59213 6.96 16.0247 6.70626 16.1417C5.86309 16.5301 5.76452 17.0431 6.46644 17.3901C6.53421 17.4236 7.70029 17.7861 9.05772 18.1955L11.5258 18.94L17.1301 15.5327C20.2125 13.6586 22.7965 12.1042 22.8723 12.0786C23.063 12.0139 23.2265 12.0201 23.3035 12.0949C23.3626 12.1524 23.3624 12.1674 23.3013 12.2645C23.2645 12.3232 22.3448 13.1461 21.2576 14.0933C20.1704 15.0405 18.1535 16.7987 16.7755 18.0005C15.3976 19.2023 14.2644 20.1903 14.2573 20.1962C14.2471 20.2047 14.1331 21.7235 13.9117 24.8001L13.8992 24.9739L14.0847 24.9495C14.1867 24.9361 14.3485 24.8849 14.4442 24.8356C14.5399 24.7863 15.1843 24.2192 15.8762 23.5753C16.5681 22.9315 17.1577 22.3959 17.1865 22.3852C17.2152 22.3745 18.3159 23.1327 19.6324 24.0701C20.9489 25.0075 22.1292 25.8209 22.2553 25.8775C22.586 26.026 22.9586 26.0407 23.2005 25.9149C23.4169 25.8024 23.6278 25.5234 23.7173 25.2313C23.7519 25.1181 24.5047 21.7381 25.3899 17.7203C26.8644 11.0285 26.9995 10.3832 27 10.0359C27.0004 9.70786 26.9864 9.6297 26.8959 9.45705C26.8321 9.33529 26.7234 9.21099 26.6171 9.13833C26.3741 8.97219 25.9717 8.95427 25.5855 9.09235Z" fill="white"/>
</g>
<defs>
<clipPath id="clip0_0_342">
<rect width="36" height="36" fill="white"/>
</clipPath>
</defs>
</svg>
